# Blender v3.1.2 OBJ File: 'naozane7.blend'
# www.blender.org
mtllib naozane8.mtl
o 立方体
v -0.082454 3.905386 7.304790
v -0.084159 3.905382 -7.304773
v -0.085085 -3.905325 7.304793
v -0.086790 -3.905329 -7.304771
v 0.086790 3.905329 7.304771
v 0.085085 3.905325 -7.304793
v 0.084159 -3.905382 7.304773
v 0.082454 -3.905386 -7.304790
vt 0.375000 0.000000
vt 0.625000 0.000000
vt 0.625000 0.250000
vt 0.375000 0.250000
vt 0.625000 0.500000
vt 0.375000 0.500000
vt 0.375000 0.750000
vt 0.625000 0.750000
vt 0.625000 1.000000
vt 0.375000 1.000000
vt 0.125000 0.500000
vt 0.125000 0.750000
vt 0.875000 0.500000
vt 0.875000 0.750000
vt 0.004698 0.007721
vt 0.997809 -0.003907
vt 0.995302 0.992279
vt -0.000315 1.003907
vn -1.0000 0.0003 0.0001
vn -0.0003 -1.0000 0.0000
vn 0.0003 1.0000 -0.0000
vn 0.0001 0.0000 1.0000
vn -0.0001 -0.0000 -1.0000
vn 1.0000 -0.0003 -0.0001
usemtl マテリアル
s off
f 1/1/1 2/2/1 4/3/1 3/4/1
f 3/4/2 4/3/2 8/5/2 7/6/2
f 5/7/3 6/8/3 2/9/3 1/10/3
f 3/11/4 7/6/4 5/7/4 1/12/4
f 8/5/5 4/13/5 2/14/5 6/8/5
usemtl skin
f 7/15/6 8/16/6 6/17/6 5/18/6
